<svg xmlns="http://www.w3.org/2000/svg" xmlns:xlink="http://www.w3.org/1999/xlink" viewBox="0 0 607.6 709.5"><defs><style>.cls-1{fill:url(#linear-gradient);}</style><linearGradient id="linear-gradient" y1="354.75" x2="607.6" y2="354.75" gradientUnits="userSpaceOnUse"><stop offset="0" stop-color="#fff06f"/><stop offset="1" stop-color="#fffbd6"/></linearGradient></defs><title>svg_bg</title><g id="Layer_2" data-name="Layer 2"><g id="Layer_1-2" data-name="Layer 1"><path class="cls-1" d="M279.67,0c49,38.78,70.76,87.2,60.5,113.59C333.33,131.19,319.6,143,319.6,143c-47.69,38.56-66-4-201-1-78.21,1.74-112,63-118,143-5.07,67.59,21,205,115,228,210.71,51.56,162-152,259.87-171.18,12.69-2.49,68.58,3.14,86,28.64,25.17,36.9-64.27,71.37-65.1,142.26-.92,78.86,107.54,143.21,141.24,163.52a393.65,393.65,0,0,0,70,33.26V1"/></g></g></svg>