<svg width="700" height="500" viewBox="0 0 740 487" fill="none" xmlns="http://www.w3.org/2000/svg">
<g id="background">
<path id="Vector 1" d="M108.03 14.1759C77.9538 5.67036 39.9628 19.8462 32.0481 77.9671C27.8268 77.9671 21.9171 81.3693 32.0481 94.9781C44.7117 111.989 46.2947 113.407 73.2049 131.835C100.115 150.264 128.608 129 166.599 120.495C204.59 111.989 179.263 90.7253 177.68 52.4506C176.097 14.1758 138.106 22.6814 108.03 14.1759Z" fill="#C4C4C4"/>
<path id="Vector 2" d="M11.4697 151.681C-15.124 113.123 36.2693 105.374 65.2902 106.319C82.175 109.626 120.694 116.525 139.689 117.659C163.433 119.077 165.016 140.341 172.931 164.44C180.846 188.539 163.433 184.286 155.519 211.22C147.604 238.154 123.859 221.143 98.5322 235.319C73.2049 249.495 49.4606 242.407 28.8822 228.231C8.30377 214.055 44.7117 199.879 11.4697 151.681Z" fill="#C4C4C4"/>
<path id="Vector 3" d="M5.13783 275.011C-15.124 243.257 29.4098 229.648 54.2094 226.813C67.9284 223.033 99.7986 215.473 117.528 215.473C139.689 215.473 131.774 249.495 144.438 265.088C157.102 280.681 139.689 297.692 131.774 311.868C123.859 326.044 81.1197 327.462 54.2094 327.462C27.2992 327.462 30.4651 314.703 5.13783 275.011Z" fill="#C4C4C4"/>
<path id="Vector 4" d="M57.946 316.087C16.156 303.612 10.985 327.9 13.6233 341.603V348.691V384.131C13.6233 401.142 37.3676 412.482 48.4483 439.416C59.5289 466.35 76.9414 432.328 103.852 439.416C130.762 446.504 156.089 409.647 159.255 394.054C162.421 378.46 143.426 334.515 124.43 316.087C105.435 297.658 110.184 331.68 57.946 316.087Z" fill="#C4C4C4"/>
<path id="Vector 5" d="M164.899 59.5385C156.035 43.6616 168.593 25.5165 175.98 18.4286H250.379C266.208 18.4286 283.621 35.4396 304.199 73.7143C324.778 111.989 278.872 89.3077 250.379 120.495C221.886 151.681 199.724 129 175.98 120.495C152.236 111.989 175.98 79.3847 164.899 59.5385Z" fill="#C4C4C4"/>
<path id="Vector 6" d="M174.758 116.476C140.566 100.599 135.184 130.652 136.767 147.663V191.608C136.767 212.872 155.763 215.707 174.758 239.806C193.754 263.904 212.749 239.806 261.821 239.806C310.892 239.806 285.565 202.948 285.565 183.102C285.565 163.256 290.314 147.663 285.565 133.487C280.816 119.311 217.498 136.322 174.758 116.476Z" fill="#C4C4C4"/>
<path id="Vector 7" d="M174.514 208.565C146.654 191.554 122.804 215.653 114.362 229.829C122.277 245.895 140.639 281.145 150.77 293.62C163.433 309.214 190.344 324.807 215.671 327.642C240.998 330.477 274.24 286.532 288.487 262.433C302.733 238.334 261.577 208.565 245.747 208.565C229.917 208.565 209.339 229.829 174.514 208.565Z" fill="#C4C4C4"/>
<path id="Vector 8" d="M120.46 396.923C102.73 388.985 127.847 355.813 142.621 340.22C169.004 340.22 223.668 341.638 231.266 347.308C240.764 354.396 248.679 382.747 243.93 409.682C239.181 436.616 190.11 419.605 175.863 430.945C161.616 442.286 142.621 406.846 120.46 396.923Z" fill="#C4C4C4"/>
<path id="Vector 9" d="M254.6 39.3067C234.339 49.5133 253.545 64.3506 265.681 70.4935C276.234 86.5594 306.205 119.825 341.663 124.362C385.986 130.032 401.815 91.7572 403.398 70.4935C404.981 49.2298 368.573 39.3067 328.999 26.5484C289.425 13.7902 279.928 26.5484 254.6 39.3067Z" fill="#C4C4C4"/>
<path id="Vector 10" d="M312.231 96.6809C283.105 87.6083 255.772 100.461 245.747 108.022V163.307C245.747 181.736 312.231 197.329 329.644 201.582C347.056 205.835 392.962 178.901 411.957 174.648C430.953 170.395 421.455 137.791 419.872 116.527C418.289 95.2633 348.639 108.022 312.231 96.6809Z" fill="#C4C4C4"/>
<path id="Vector 11" d="M267.205 228.231C255.808 207.818 286.728 189.484 303.613 182.868C315.221 189.011 342.554 202.714 359.016 208.385C379.595 215.473 355.851 249.495 338.438 262.253C321.026 275.011 281.452 253.747 267.205 228.231Z" fill="#C4C4C4"/>
<path id="Vector 12" d="M295.43 252.972C256.172 245.033 251.635 261.95 254.273 271.4C254.273 278.961 256.172 297.2 263.771 309.675C273.268 325.268 278.017 332.356 295.43 332.356C312.842 332.356 330.255 342.279 347.667 332.356C365.08 322.433 361.914 301.169 365.08 282.741C368.246 264.312 344.501 262.895 295.43 252.972Z" fill="#C4C4C4"/>
<path id="Vector 13" d="M384.406 48.9028C395.486 29.0567 423.979 -7.80048 449.307 3.54018C480.966 17.716 531.62 2.12261 531.62 12.0457V61.6611C531.62 70.1666 514.208 88.5952 488.881 87.1776C483.578 86.8808 478.275 87.0811 472.958 87.4273C485.173 97.3661 494.203 106.47 498.378 111.277C494.685 120.255 483.499 139.061 468.302 142.463C449.307 146.716 433.477 180.738 422.397 173.65C413.532 167.98 374.908 152.386 360.661 122.617C355.756 112.367 345.781 92.2809 374.908 78.6721C383.804 74.5158 390.547 70.5287 396.139 67.1657C387.068 58.6722 384.406 51.894 384.406 48.9028Z" fill="#C4C4C4"/>
<path id="Vector 14" d="M367.452 195.746C333.26 193.478 335.265 224.097 340.542 239.691C340.542 256.229 345.924 291.007 367.452 297.812C394.362 306.317 403.86 293.559 445.017 289.306C486.174 285.054 449.766 249.614 445.017 239.691C440.268 229.768 410.192 198.581 367.452 195.746Z" fill="#C4C4C4"/>
<path id="Vector 15" d="M348.872 372.824C329.877 370.556 333.57 331.242 337.791 311.868L372.616 259.418C390.557 262.725 430.553 269.341 447.015 269.341C467.594 269.341 443.849 311.868 447.015 326.044C450.181 340.22 431.186 348.725 412.19 372.824C393.195 396.923 372.616 375.659 348.872 372.824Z" fill="#C4C4C4"/>
<path id="Vector 16" d="M412.398 146.499C390.87 143.097 374.935 158.312 369.659 166.345C363.855 182.884 353.829 219.647 360.161 234.389C368.076 252.818 401.318 234.389 425.062 234.389C448.806 234.389 469.385 208.873 472.551 198.95C475.717 189.027 439.309 150.752 412.398 146.499Z" fill="#C4C4C4"/>
<path id="Vector 17" d="M525.93 58.4724C493.005 50.5339 477.386 71.2306 473.693 82.5713L478.441 88.2417C485.301 107.143 502.819 147.213 518.015 156.286C537.011 167.626 548.091 147.78 573.419 135.022C598.746 122.264 590.831 101 589.248 82.5713C587.665 64.1427 567.087 68.3955 525.93 58.4724Z" fill="#C4C4C4"/>
<path id="Vector 18" d="M468.944 289.187C438.551 294.857 429.897 274.539 429.37 263.67L443.616 198.462C455.752 192.791 484.457 181.451 502.186 181.451C524.347 181.451 540.177 205.55 548.091 214.055C556.006 222.561 541.76 239.572 532.262 263.67C522.764 287.769 506.935 282.099 468.944 289.187Z" fill="#C4C4C4"/>
<path id="Vector 19" d="M476.858 111.989L416.706 137.506C430.953 153.099 462.928 186.837 476.858 197.044C494.271 209.802 476.858 232.484 494.271 238.154C511.683 243.824 510.101 192.791 532.262 160.187C554.423 127.582 524.347 137.506 510.101 124.747C498.703 114.541 483.19 111.989 476.858 111.989Z" fill="#C4C4C4"/>
<path id="Vector 20" d="M547.203 233.302C523.142 218.559 493.91 239.444 482.302 251.73C462.251 270.159 423.733 310.702 430.064 325.445C437.979 343.873 471.221 339.62 520.293 345.291C569.364 350.961 537.705 318.357 561.45 291.423C585.194 264.488 577.279 251.73 547.203 233.302Z" fill="#C4C4C4"/>
<path id="Vector 21" d="M473.299 345.733C435.308 368.414 449.027 383.535 460.635 388.26C469.605 400.073 491.661 425.401 508.124 432.205C528.702 440.711 554.03 429.37 574.608 413.777C595.186 398.183 560.361 345.733 554.03 345.733C547.698 345.733 520.788 317.381 473.299 345.733Z" fill="#C4C4C4"/>
<g id="Vector 22">
<path d="M387.635 290.597C407.897 284.927 423.515 310.916 428.792 324.619C428.792 347.301 387.635 365.729 362.308 364.312C336.98 362.894 322.734 355.806 310.07 347.301C297.407 338.795 310.07 303.356 330.649 280.674C351.227 257.993 362.308 297.685 387.635 290.597Z" fill="#C4C4C4"/>
<path d="M137.528 290.597C146.393 290.597 178.157 283.982 192.932 280.674C204.54 298.158 226.807 335.96 223.008 347.301C218.259 361.476 192.932 357.224 137.528 364.312C82.1247 371.4 123.282 324.619 115.367 314.696C107.452 304.773 126.447 290.597 137.528 290.597Z" fill="#C4C4C4"/>
</g>
<path id="Vector 23" d="M255.273 302.429C224.881 292.223 218.338 325.583 218.865 343.539C231.001 361.495 263.505 399.959 296.43 410.165C337.587 422.924 320.175 410.165 355 397.407C389.825 384.649 370.829 357.715 369.246 343.539C367.663 329.363 293.264 315.187 255.273 302.429Z" fill="#C4C4C4"/>
<path id="Vector 24" d="M579.838 151.474C531.716 133.329 514.409 164.705 511.771 182.661H526.017C518.63 182.661 505.439 187.197 511.771 205.342C519.685 228.023 526.017 242.199 549.761 257.793C573.506 273.386 595.667 262.046 619.411 257.793C643.156 253.54 639.99 233.694 639.99 215.265C639.99 196.837 639.99 174.155 579.838 151.474Z" fill="#C4C4C4"/>
<path id="Vector 25" d="M565.504 1.65241C550.308 -6.28606 525.402 16.3008 514.849 28.5865C518.543 28.5865 526.247 31.4216 527.513 42.7623C529.096 56.9381 546.508 79.6195 565.504 90.9601C584.499 102.301 601.912 75.3667 606.661 52.6854C611.41 30.0041 584.499 11.5755 565.504 1.65241Z" fill="#C4C4C4"/>
<path id="Vector 26" d="M620.36 52.2659C592.066 36.3168 563.558 58.9113 552.84 72.2021C552.84 96.8851 556.055 149.099 568.916 160.491C584.992 174.732 594.638 160.491 620.36 167.611C646.081 174.732 658.942 144.827 676.626 132.011C694.309 119.195 655.727 72.2021 620.36 52.2659Z" fill="#C4C4C4"/>
<path id="Vector 27" d="M269.491 477.842C236.249 509.029 231.5 450.908 220.42 446.655L203.007 372.941C221.475 372.941 260.627 370.956 269.491 363.018C280.572 353.094 307.482 370.105 324.895 385.699C342.307 401.292 339.141 414.051 337.558 431.062C335.975 448.073 302.733 446.655 269.491 477.842Z" fill="#C4C4C4"/>
<g id="Vector 28">
<path d="M370.8 472.055C315.397 487.649 335.975 459.297 313.814 439.451C336.503 418.187 383.464 373.675 389.796 365.736C393.503 361.088 407.283 358.617 424.79 360.364C426.358 355.14 428.01 348.944 429.37 341.638C434.435 314.42 455.752 322.736 465.778 330.297C476.331 337.857 499.653 355.53 508.518 365.736C513.891 371.924 499.906 376.777 481.909 380.136C484.502 381.828 487.046 383.642 489.522 385.583C527.513 415.352 497.437 406.846 497.437 439.451C497.437 472.055 426.204 456.462 370.8 472.055Z" fill="#C4C4C4"/>
<path d="M597.163 187.121C579.434 148.563 609.827 145.539 627.239 148.846C631.988 138.923 645.918 118.793 663.647 117.659C685.809 116.242 723.799 148.846 736.463 187.121C749.127 225.396 725.382 229.648 703.221 256.583C701.774 258.341 700.158 259.78 698.396 260.919C712.817 277.529 719.051 292.355 719.051 297.692C719.051 306.198 718.333 341.638 690.557 341.638C680.478 341.638 671.669 339.771 663.4 336.85C661.99 353.769 654.045 363.025 627.239 375.66C603.178 387 570.78 380.385 557.589 375.66L532.262 320.374C538.066 308.088 551.257 283.517 557.589 283.517C559.218 283.517 562.791 283.036 567.619 282.372C563.702 279.555 560.274 277.031 557.589 275.011C554.423 258.473 556.006 226.53 587.665 231.066C605.195 233.578 614.338 228.858 622.525 225.037C612.198 213.415 603.208 200.268 597.163 187.121Z" fill="#C4C4C4"/>
</g>
</g>
</svg>
