<svg width="1011" height="728" viewBox="0 0 1011 728" fill="none" xmlns="http://www.w3.org/2000/svg">
<g id="undraw_unlock_24mb 1" clip-path="url(#clip0)">
<g id="phone-body">
<path id="Vector" d="M379.917 45.2428L655.624 570.333C662.478 583.378 656.872 599.704 643.109 606.89L418.282 724.252C404.52 731.438 387.924 726.762 381.07 713.717L381.029 713.635L105.322 188.545C98.4677 175.501 104.075 159.175 117.837 151.988L151.508 134.385L153.615 138.446C159.211 149.153 172.969 153.085 184.35 147.174L298.732 87.4719C303.103 85.2175 306.699 81.6103 308.905 77.362C309.355 76.5288 309.764 75.6135 310.086 74.7408C312.205 69.0058 311.78 62.6879 309.066 57.3955L306.958 53.3342L342.877 34.6232C356.426 27.44 373.063 32.1986 379.917 45.2428Z" fill="url(#paint0_linear)"/>
<path id="Vector_2" d="M312.698 100.979C312.3 101.886 311.809 102.828 311.188 103.714C338.383 125.85 373.692 135.485 408.426 130.426L407.301 127.538C373.498 132.233 339.173 122.644 312.698 100.979Z" fill="#6C63FF"/>
<path id="Vector_3" d="M258.418 115.661L255.504 116.945C298.887 158.258 362.533 173.609 422.587 157.298L421.414 154.726C362.951 170.385 300.967 155.546 258.418 115.661Z" fill="#6C63FF"/>
<path id="Vector_4" d="M209.855 133.567L207.136 135.008C268.695 197.562 365.674 217.389 451.88 183.8L450.581 181.381C365.801 214.166 270.514 194.729 209.855 133.567Z" fill="#6C63FF"/>
<path id="Vector_5" d="M389.4 68.8H387.6V67H387.2V68.8H385.4V69.2H387.2V71H387.6V69.2H389.4V68.8Z" fill="#F2F2F2"/>
<path id="Vector_6" d="M298.85 242.227L297.275 243.003L296.479 241.388L296.129 241.56L297.012 243.132L295.393 244.041L295.613 244.267L297.189 243.491L297.984 245.106L298.334 244.933L297.451 243.362L299.07 242.453L298.85 242.227Z" fill="#F2F2F2"/>
<path id="Vector_7" d="M487.652 245.114L485.718 245.103L485.682 243.072L485.247 243.166L485.332 245.052L483.301 245.088L483.395 245.524L485.281 245.438L485.317 247.469L485.753 247.375L485.668 245.489L487.699 245.453L487.652 245.114Z" fill="#F2F2F2"/>
<path id="Vector_8" d="M367.962 157.134C369.696 156.28 370.311 153.981 369.334 151.999C368.358 150.017 366.161 149.103 364.427 149.957C362.693 150.811 362.079 153.11 363.055 155.092C364.031 157.074 366.228 157.988 367.962 157.134Z" fill="#FF6584"/>
<path id="Vector_9" d="M409.955 463.062C408.585 461.721 407.215 460.38 405.8 459.153L407.304 457.679C408.755 458.98 410.125 460.321 411.495 461.662L409.955 463.062Z" fill="#E6E6E6"/>
<path id="Vector_10" d="M427.011 482.529L428.913 481.184C426.335 477.759 423.666 474.379 420.819 471.087L419.048 472.47C421.805 475.806 424.473 479.186 427.011 482.529Z" fill="#E6E6E6"/>
<path id="Vector_11" d="M439.981 504.009L441.877 502.98C440.026 499.433 438.006 495.969 435.856 492.664L433.997 493.769C436.063 497.115 438.083 500.58 439.981 504.009Z" fill="#E6E6E6"/>
<path id="Vector_12" d="M450.63 527.54L452.532 526.809C451.054 522.81 449.456 518.766 447.7 514.801L445.838 515.615C447.595 519.58 449.152 523.541 450.63 527.54Z" fill="#E6E6E6"/>
<path id="Vector_13" d="M457.029 551.85L459.17 551.408C458.298 547.245 457.3 543.042 456.216 538.882L454.03 539.448C455.2 543.566 456.158 547.687 457.029 551.85Z" fill="#E6E6E6"/>
<path id="Vector_14" d="M437.271 543.42L439.281 543.368C438.909 539.069 438.297 534.678 437.571 530.449L435.566 530.707C436.329 534.814 436.899 539.12 437.271 543.42Z" fill="#E6E6E6"/>
<path id="Vector_15" d="M345.644 617.658L347.601 618.62C350.138 614.736 352.543 610.815 354.816 606.858L352.807 606.023C350.626 609.935 348.129 613.901 345.644 617.658Z" fill="#E6E6E6"/>
<path id="Vector_16" d="M316.963 595.638C315.252 598.128 313.499 600.534 311.622 602.899L310.561 600.746C312.142 598.63 313.638 596.556 315.219 594.439L316.963 595.638Z" fill="#E6E6E6"/>
<path id="Vector_17" d="M290.12 317.074L292.557 315.776C293.548 317.517 294.578 319.336 295.423 321.053L292.947 322.272C291.995 320.609 291.111 318.815 290.12 317.074Z" fill="#E6E6E6"/>
<path id="Vector_18" d="M229.764 405.013L430.743 300.128C461.86 283.888 499.67 294.546 515.157 324.028L518.836 331.061L317.856 435.945C286.74 452.186 248.93 441.527 233.443 412.046L229.764 405.013Z" fill="white"/>
<path id="Vector_19" d="M647.83 565.5C647.404 565.506 637.42 564.612 622.28 555.857C608.354 547.83 587.244 531.31 565.765 498.149C525.057 435.307 458.051 428.138 457.371 428.065L457.633 426.202C457.846 426.199 474.917 427.987 496.893 437.555C525.982 450.247 550.431 470.934 567.283 497.096C607.951 559.856 647.539 563.604 647.879 563.641L647.83 565.5Z" fill="#F2F2F2"/>
<path id="Vector_20" d="M414.902 458.395C421.095 455.345 423.742 448.053 420.814 442.107C417.886 436.162 410.491 433.815 404.298 436.865C398.105 439.915 395.458 447.208 398.386 453.153C401.315 459.099 408.709 461.446 414.902 458.395Z" fill="#6C63FF"/>
<path id="Vector_21" d="M502.71 432.983C508.903 429.933 511.649 422.841 508.843 417.144C506.036 411.446 498.741 409.3 492.548 412.35C486.355 415.4 483.609 422.492 486.415 428.19C489.222 433.887 496.517 436.033 502.71 432.983Z" fill="#F2F2F2"/>
<path id="Vector_22" d="M510.529 471.491C516.722 468.441 519.369 461.148 516.441 455.203C513.512 449.258 506.118 446.911 499.925 449.961C493.732 453.011 491.085 460.304 494.013 466.249C496.942 472.194 504.336 474.541 510.529 471.491Z" fill="#6C63FF"/>
<path id="Vector_23" d="M550.845 460.552C557.038 457.502 559.685 450.21 556.756 444.264C553.828 438.319 546.434 435.972 540.241 439.022C534.047 442.072 531.401 449.365 534.329 455.31C537.257 461.256 544.652 463.603 550.845 460.552Z" fill="#6C63FF"/>
<path id="Vector_24" d="M475.89 579.958C482.083 576.908 484.73 569.616 481.801 563.67C478.873 557.725 471.479 555.378 465.286 558.428C459.092 561.478 456.446 568.771 459.374 574.716C462.302 580.662 469.697 583.009 475.89 579.958Z" fill="#F2F2F2"/>
<path id="Vector_25" d="M510.923 629.586C510.923 629.586 486.58 608.453 510.374 571.891L510.923 629.586Z" fill="#F2F2F2"/>
<path id="Vector_26" d="M497.024 635.317C497.024 635.317 478.087 609.782 438.473 629.601L497.024 635.317Z" fill="#F2F2F2"/>
</g>
<g id="outer-circle-nonfill">
<path id="Vector_27" opacity="0.2" d="M360.347 457.397C398.497 438.608 414.983 394.056 397.169 357.888C379.355 321.72 333.988 307.632 295.838 326.422C257.689 345.211 241.203 389.763 259.017 425.931C276.83 462.099 322.197 476.187 360.347 457.397Z" fill="#6C63FF"/>
</g>
<g id="inner-circle-nonfill">
<path id="Vector_28" opacity="0.2" d="M351.069 438.558C377.823 425.381 389.324 394.014 376.757 368.499C364.19 342.983 332.313 332.981 305.559 346.158C278.805 359.335 267.304 390.702 279.871 416.217C292.438 441.733 324.314 451.736 351.069 438.558Z" fill="#6C63FF"/>
</g>
<g id="inner-cirle-fill">
<path id="Vector_29" d="M343.115 422.411C360.952 413.626 368.685 392.849 360.388 376.003C352.091 359.158 330.906 352.624 313.07 361.408C295.234 370.193 287.501 390.97 295.797 407.816C304.094 424.661 325.279 431.196 343.115 422.411Z" fill="#6C63FF"/>
</g>
<path id="Vector_30" d="M330.841 382.778C329.26 379.794 325.271 378.709 321.992 380.425C318.714 382.142 317.272 386.004 318.853 388.987C319.659 390.623 321.322 391.736 323.281 392.093L328.45 407.34L340.437 401.13L330.824 388.174C331.605 386.366 331.647 384.414 330.841 382.778Z" fill="white"/>
<g id="key">
<path id="Vector_31" d="M557.435 331.47C560.782 317.96 574.691 309.082 588.553 311.683C602.416 314.283 610.978 327.301 607.631 340.811C604.284 354.321 590.376 363.199 576.513 360.598C567.398 358.903 560.172 352.527 557.658 343.931L469.884 348.03L469.823 361.442L465.026 362.182L464.995 368.889L469.82 368.641L469.789 375.347L462.319 375.681L462.315 371.526L454.292 371.829L454.295 375.984L442.512 376.515L442.571 370.302L446.883 370.105L446.913 363.398L441.535 363.614L441.566 351.231L428.717 351.78L428.741 336.764L557.435 331.47ZM594.563 347.247C601.246 340.509 601.301 330.141 594.621 324.003C587.942 317.864 577.185 318.296 570.503 325.034C563.821 331.772 563.766 342.14 570.445 348.278C577.085 354.335 587.841 353.904 594.563 347.247Z" fill="#6C63FF"/>
</g>
</g>
<defs>
<linearGradient id="paint0_linear" x1="334.04" y1="485.412" x2="438.118" y2="209.52" gradientUnits="userSpaceOnUse">
<stop stop-color="#FFF06F"/>
<stop offset="0.3659" stop-color="#FFF495"/>
<stop offset="1" stop-color="#FFFBD6"/>
</linearGradient>
<clipPath id="clip0">
<rect width="1010.9" height="727.3" fill="white"/>
</clipPath>
</defs>
</svg>
