<svg viewBox="0 0 911 660" fill="none" xmlns="http://www.w3.org/2000/svg">
<g id="results">
<path id="Vector" d="M596.89 0L430.853 177.416C439.78 184.046 447.185 192.366 452.608 201.856C458.031 211.346 461.354 221.803 462.372 232.576C463.39 243.35 462.079 254.208 458.523 264.475C454.967 274.743 449.24 284.199 441.701 292.256C434.161 300.312 424.969 306.796 414.698 311.304C404.427 315.811 393.296 318.246 382 318.457C370.703 318.667 359.482 316.648 349.036 312.526C338.589 308.404 329.141 302.267 321.28 294.497L90 541.627C156.682 591.242 238.759 618.12 323.211 618C533.515 618 704 454.783 704 253.445C704.127 158.834 665.7 67.9079 596.89 0V0Z" fill="#F2F2F2"/>
<path id="Vector_2" d="M383 291C410.614 291 433 269.734 433 243.5C433 217.266 410.614 196 383 196C355.386 196 333 217.266 333 243.5C333 269.734 355.386 291 383 291Z" fill="#F2F2F2"/>
<path id="Vector_3" d="M627 332H84V659H627V332Z" fill="#3F3D56"/>
<path id="Vector_4" d="M680.149 170.007C680.149 170.007 645.358 168.662 644.418 202.752C643.478 236.843 644.418 266 644.418 266H714V204.547C714 204.547 712.59 172.25 680.149 170.007Z" fill="#2F2E41"/>
<path id="Vector_5" d="M666.358 230.862C666.358 230.862 668.44 253.457 661.499 255.45C654.559 257.444 664.275 286.019 664.275 286.019L692.037 292L708 261.431L701.06 252.792C701.06 252.792 689.261 237.508 694.813 226.875C700.366 216.242 666.358 230.862 666.358 230.862Z" fill="#FFB9B9"/>
<path id="Vector_6" opacity="0.1" d="M666.358 230.862C666.358 230.862 668.44 253.457 661.499 255.45C654.559 257.444 664.275 286.019 664.275 286.019L692.037 292L708 261.431L701.06 252.792C701.06 252.792 689.261 237.508 694.813 226.875C700.366 216.242 666.358 230.862 666.358 230.862Z" fill="black"/>
<path id="Vector_7" d="M676 242C690.912 242 703 230.359 703 216C703 201.641 690.912 190 676 190C661.088 190 649 201.641 649 216C649 230.359 661.088 242 676 242Z" fill="#FFB9B9"/>
<path id="Vector_8" d="M570.643 304C570.643 304 554.044 315.993 558.885 325.32C563.726 334.648 578.25 366.629 578.25 366.629C578.25 366.629 581.017 391.28 592.774 389.948C604.532 388.615 592.774 363.964 592.774 363.964L578.25 325.987L583.092 318.658L570.643 304Z" fill="#FFB9B9"/>
<path id="Vector_9" d="M794.861 308C794.861 308 813.579 322.06 802.487 327.416C791.395 332.772 744.256 358.213 744.256 358.213C744.256 358.213 715.834 378.968 712.368 362.9C708.902 346.831 731.085 347.501 731.085 347.501C731.085 347.501 775.451 321.39 777.531 316.034C779.61 310.678 794.861 308 794.861 308Z" fill="#FFB9B9"/>
<path id="Vector_10" d="M630.558 399.345C630.558 399.345 621.604 446.181 626.426 472.568C629.264 488.992 628.796 505.786 625.048 522.042L651.909 524.681C651.909 524.681 669.127 427.051 678.769 427.711C688.411 428.37 709.073 526 709.073 526L738 522.042C738 522.042 729.047 478.505 733.179 465.311C737.311 452.118 734.556 404.623 724.225 399.345C713.894 394.068 630.558 399.345 630.558 399.345Z" fill="#FF9A00"/>
<path id="Vector_11" d="M655 522.328C655 522.328 623.934 512.377 621.173 519.674C618.412 526.972 619.102 608.57 619.792 613.877C620.483 619.184 622.554 616.531 620.483 619.184C618.412 621.838 618.412 615.867 619.102 623.165C619.792 630.462 620.483 631.789 620.483 631.789C620.483 631.789 608.057 659.652 630.148 658.988C652.239 658.325 641.883 638.423 641.883 638.423C641.883 638.423 645.335 632.452 643.264 629.135C641.193 625.818 640.503 620.511 643.264 617.857C646.026 615.204 640.503 609.897 639.812 607.906C639.122 605.916 637.051 606.58 642.574 599.946C648.097 593.312 645.335 589.995 644.645 588.004C643.954 586.014 649.477 574.073 649.477 574.073L655 522.328Z" fill="#2F2E41"/>
<path id="Vector_12" d="M707 522.328C707 522.328 738.065 512.377 740.827 519.674C743.588 526.972 742.898 608.57 742.208 613.877C741.517 619.184 739.446 616.531 741.517 619.184C743.588 621.838 743.588 615.867 742.898 623.165C742.208 630.462 741.517 631.789 741.517 631.789C741.517 631.789 753.943 659.652 731.852 658.988C709.761 658.325 720.117 638.423 720.117 638.423C720.117 638.423 716.665 632.452 718.736 629.135C720.807 625.818 721.497 620.511 718.736 617.858C715.974 615.204 721.497 609.897 722.188 607.907C722.878 605.916 724.949 606.58 719.426 599.946C713.903 593.312 716.665 589.995 717.355 588.004C718.045 586.014 712.523 574.073 712.523 574.073L707 522.328Z" fill="#2F2E41"/>
<path id="Vector_13" d="M677.341 276.702C677.341 276.702 672.516 262.843 669.759 260.204C667.001 257.564 665.212 250.733 665.212 250.733C665.212 250.733 649.769 256.244 645.633 257.564C641.497 258.884 627.711 258.884 627.711 260.864V303.099C627.711 303.099 626.332 311.678 629.09 333.456C631.847 355.234 640.118 368.433 630.468 377.672C620.818 386.911 629.09 409.349 633.915 413.308C638.74 417.268 732.486 437.726 733.175 389.551C733.175 389.551 710.428 351.275 720.078 338.736C729.728 326.197 738 305.079 738 305.079V262.843C738 262.843 722.835 258.224 718.01 257.564C713.185 256.904 701.467 244.365 700.088 245.025C698.71 245.685 696.045 245 696.045 245L695.952 254.264L677.341 276.702Z" fill="#FF5700"/>
<path id="Vector_14" d="M637 264.316L627.423 261C627.423 261 615.795 266.968 615.795 268.295C615.795 269.621 608.954 275.589 605.534 278.242C602.114 280.895 592.537 281.558 592.537 282.884C592.537 284.211 562.44 305.432 565.176 308.747C567.912 312.063 576.805 324 581.593 324C586.381 324 598.01 312.063 600.062 311.4C602.114 310.737 623.319 298.137 630.16 300.126C637 302.116 637 264.316 637 264.316Z" fill="#FF5700"/>
<path id="Vector_15" d="M725.012 265.634L738.296 263C738.296 263 763.466 280.782 764.165 281.441C764.864 282.099 804.016 305.809 801.919 310.419C799.821 315.03 777.448 321.616 771.855 319.64C766.262 317.664 742.491 301.199 733.402 303.175C724.313 305.151 725.012 265.634 725.012 265.634Z" fill="#FF5700"/>
<path id="Vector_16" d="M704.785 207.695C708.072 194.474 706.728 190.962 706.728 190.962L664.655 181L650 194.584V208.62L651.479 213C651.479 213 657.564 208.62 655.2 202.281C655.2 202.281 702.422 217.204 704.785 207.695Z" fill="#2F2E41"/>
<path id="Vector_17" d="M705.318 199.896L701 204.01C707.81 204.084 698.74 252.881 701.75 260.772L713 261V196L705.318 199.896Z" fill="#2F2E41"/>
<path id="Vector_18" d="M650 216C651.105 216 652 213.985 652 211.5C652 209.015 651.105 207 650 207C648.895 207 648 209.015 648 211.5C648 213.985 648.895 216 650 216Z" fill="#FFB9B9"/>
<path id="Vector_19" d="M703.5 216C704.881 216 706 213.985 706 211.5C706 209.015 704.881 207 703.5 207C702.119 207 701 209.015 701 211.5C701 213.985 702.119 216 703.5 216Z" fill="#FFB9B9"/>
<path id="Vector_20" d="M327.245 585L326 583.808L379.511 532.549L332.161 487.192L333.406 486L382 532.549L327.245 585Z" fill="#2F2E41"/>
<path id="Vector_21" d="M378.5 550C388.717 550 397 542.165 397 532.5C397 522.835 388.717 515 378.5 515C368.283 515 360 522.835 360 532.5C360 542.165 368.283 550 378.5 550Z" fill="#FF5700"/>
<path id="Vector_22" d="M329.5 602C339.717 602 348 593.941 348 584C348 574.059 339.717 566 329.5 566C319.283 566 311 574.059 311 584C311 593.941 319.283 602 329.5 602Z" fill="#FF5700"/>
<path id="Vector_23" d="M331.245 487L330 485.808L383.511 434.549L336.161 389.192L337.406 388L386 434.549L331.245 487Z" fill="#2F2E41"/>
<path id="Vector_24" d="M336.5 406C346.717 406 355 398.165 355 388.5C355 378.835 346.717 371 336.5 371C326.283 371 318 378.835 318 388.5C318 398.165 326.283 406 336.5 406Z" fill="#FF5700"/>
<path id="Vector_25" d="M381.5 453C391.717 453 400 444.941 400 435C400 425.059 391.717 417 381.5 417C371.283 417 363 425.059 363 435C363 444.941 371.283 453 381.5 453Z" fill="#FF5700"/>
<path id="Vector_26" d="M333.5 504C343.717 504 352 496.165 352 486.5C352 476.835 343.717 469 333.5 469C323.283 469 315 476.835 315 486.5C315 496.165 323.283 504 333.5 504Z" fill="#FF5700"/>
<path id="Vector_27" opacity="0.3" d="M200 353H108V369H200V353Z" fill="#FF9A00"/>
<path id="Vector_28" opacity="0.3" d="M565 534H473V538H565V534Z" fill="#FF9A00"/>
<path id="Vector_29" opacity="0.3" d="M565 546H473V550H565V546Z" fill="#FF9A00"/>
<path id="Vector_30" opacity="0.3" d="M565 559H473V563H565V559Z" fill="#FF9A00"/>
<path id="Vector_31" opacity="0.3" d="M565 571H473V576H565V571Z" fill="#FF9A00"/>
<path id="Vector_32" opacity="0.3" d="M565 584H473V588H565V584Z" fill="#FF9A00"/>
<path id="Vector_33" opacity="0.3" d="M565 597H473V601H565V597Z" fill="#FF9A00"/>
<path id="Vector_34" d="M58.812 625.121C64.8122 646.66 85.3644 660 85.3644 660C85.3644 660 96.1883 638.418 90.188 616.879C84.1878 595.34 63.6356 582 63.6356 582C63.6356 582 52.8117 603.582 58.812 625.121Z" fill="#3F3D56"/>
<path id="Vector_35" d="M67.4077 620.764C83.9763 636.228 86 660 86 660C86 660 61.1608 658.7 44.5923 643.236C28.0237 627.772 26 604 26 604C26 604 50.8392 605.3 67.4077 620.764Z" fill="#FF9A00"/>
<path id="Vector_36" d="M911 658H0V660H911V658Z" fill="#3F3D56"/>
<path id="Vector_37" d="M860 606C859.995 602.272 858.836 598.632 856.674 595.556C854.513 592.479 851.448 590.109 847.882 588.756C852.013 587.192 855.453 584.271 857.606 580.499C859.76 576.726 860.491 572.339 859.675 568.096C858.858 563.854 856.544 560.022 853.134 557.266C849.724 554.509 845.432 553 841 553C836.568 553 832.276 554.509 828.866 557.266C825.456 560.022 823.142 563.854 822.325 568.096C821.509 572.339 822.24 576.726 824.394 580.499C826.547 584.271 829.987 587.192 834.118 588.756C830.549 590.105 827.482 592.474 825.32 595.552C823.157 598.629 822 602.271 822 606C822 609.729 823.157 613.371 825.32 616.448C827.482 619.526 830.549 621.895 834.118 623.244C829.987 624.808 826.547 627.729 824.394 631.501C822.24 635.274 821.509 639.661 822.325 643.904C823.142 648.146 825.456 651.978 828.866 654.734C832.276 657.491 836.568 659 841 659C845.432 659 849.724 657.491 853.134 654.734C856.544 651.978 858.858 648.146 859.675 643.904C860.491 639.661 859.76 635.274 857.606 631.501C855.453 627.729 852.013 624.808 847.882 623.244C851.448 621.891 854.513 619.521 856.674 616.444C858.836 613.368 859.995 609.728 860 606ZM823.727 571.511C823.725 568.346 824.639 565.244 826.364 562.563C828.09 559.881 830.558 557.727 833.483 556.35C836.409 554.972 839.674 554.427 842.904 554.776C846.134 555.125 849.197 556.354 851.742 558.322C854.287 560.291 856.21 562.919 857.29 565.904C858.371 568.889 858.564 572.11 857.85 575.198C857.135 578.285 855.54 581.114 853.249 583.359C850.958 585.603 848.063 587.173 844.898 587.887C842.327 587.363 839.673 587.363 837.102 587.887C833.304 587.027 829.915 584.941 827.487 581.968C825.059 578.995 823.734 575.31 823.727 571.511V571.511ZM858.273 640.489C858.275 643.654 857.361 646.756 855.636 649.437C853.91 652.119 851.442 654.273 848.517 655.65C845.591 657.028 842.326 657.573 839.096 657.224C835.866 656.875 832.803 655.646 830.258 653.678C827.713 651.709 825.79 649.081 824.71 646.096C823.629 643.111 823.436 639.89 824.15 636.802C824.865 633.715 826.46 630.886 828.751 628.641C831.042 626.397 833.937 624.827 837.102 624.113C839.673 624.637 842.327 624.637 844.898 624.113C848.696 624.973 852.085 627.059 854.513 630.032C856.941 633.005 858.266 636.69 858.273 640.489V640.489ZM844.898 622.376C842.327 621.852 839.673 621.852 837.102 622.376C833.301 621.521 829.908 619.437 827.479 616.463C825.05 613.489 823.727 609.8 823.727 606C823.727 602.2 825.05 598.511 827.479 595.537C829.908 592.563 833.301 590.479 837.102 589.624C839.673 590.148 842.327 590.148 844.898 589.624C848.699 590.479 852.092 592.563 854.521 595.537C856.95 598.511 858.273 602.2 858.273 606C858.273 609.8 856.95 613.489 854.521 616.463C852.092 619.437 848.699 621.521 844.898 622.376V622.376Z" fill="#FF9A00"/>
<path id="Vector_38" d="M93.5 300C89.6433 300 85.8731 298.915 82.6664 296.882C79.4596 294.849 76.9603 291.96 75.4844 288.58C74.0084 285.199 73.6223 281.479 74.3747 277.891C75.1271 274.302 76.9843 271.006 79.7114 268.419C82.4385 265.831 85.9131 264.069 89.6957 263.355C93.4784 262.642 97.3992 263.008 100.962 264.408C104.525 265.808 107.571 268.18 109.714 271.222C111.856 274.264 113 277.841 113 281.5C112.994 286.405 110.938 291.107 107.282 294.575C103.626 298.044 98.6699 299.994 93.5 300V300ZM93.5 264.682C89.9939 264.682 86.5665 265.668 83.6513 267.516C80.736 269.364 78.4639 271.991 77.1221 275.064C75.7804 278.137 75.4293 281.519 76.1134 284.781C76.7974 288.043 78.4857 291.04 80.9649 293.392C83.4441 295.744 86.6028 297.346 90.0416 297.995C93.4803 298.644 97.0447 298.311 100.284 297.038C103.523 295.765 106.292 293.609 108.24 290.844C110.188 288.078 111.227 284.826 111.227 281.5C111.222 277.041 109.353 272.766 106.029 269.613C102.706 266.46 98.2 264.687 93.5 264.682V264.682Z" fill="#FF9A00"/>
<path id="Vector_39" d="M504.5 116C500.643 116 496.873 114.915 493.666 112.882C490.46 110.849 487.96 107.96 486.484 104.58C485.008 101.199 484.622 97.4795 485.375 93.8908C486.127 90.3022 487.984 87.0058 490.711 84.4185C493.439 81.8313 496.913 80.0693 500.696 79.3555C504.478 78.6417 508.399 79.008 511.962 80.4082C515.525 81.8085 518.571 84.1796 520.714 87.222C522.856 90.2643 524 93.8411 524 97.5C523.994 102.405 521.938 107.107 518.282 110.575C514.626 114.044 509.67 115.994 504.5 116V116ZM504.5 80.6818C500.994 80.6818 497.567 81.6682 494.651 83.5162C491.736 85.3642 489.464 87.9908 488.122 91.064C486.78 94.1371 486.429 97.5187 487.113 100.781C487.797 104.043 489.486 107.04 491.965 109.392C494.444 111.744 497.603 113.346 501.042 113.995C504.48 114.644 508.045 114.311 511.284 113.038C514.523 111.765 517.292 109.609 519.24 106.844C521.188 104.078 522.227 100.826 522.227 97.5C522.222 93.0411 520.353 88.7662 517.029 85.6132C513.706 82.4603 509.2 80.6868 504.5 80.6818V80.6818Z" fill="#FF9A00"/>
</g>
</svg>
